<svg width="5" height="8" viewBox="0 0 5 8" fill="none" xmlns="http://www.w3.org/2000/svg">
<rect x="1" y="8" width="1.5" height="5.65685" rx="0.75" transform="rotate(-135 1 8)" fill="#444B59"/>
<rect y="1" width="1.5" height="5.65685" rx="0.75" transform="rotate(-45 0 1)" fill="#444B59"/>
<path fill-rule="evenodd" clip-rule="evenodd" d="M0.46967 0.46967C0.762563 0.176777 1.23744 0.176777 1.53033 0.46967L4.46966 3.409C4.47986 3.4192 4.4897 3.42962 4.49919 3.44024C4.50978 3.4497 4.52016 3.45951 4.53032 3.46968C4.82322 3.76257 4.82322 4.23744 4.53032 4.53034L1.59099 7.46967C1.2981 7.76256 0.823224 7.76256 0.53033 7.46967C0.237437 7.17678 0.237437 6.7019 0.53033 6.40901L2.93934 4L0.46967 1.53033C0.176777 1.23744 0.176777 0.762563 0.46967 0.46967Z" fill="#444B59"/>
</svg>
